<?xml version="1.0" encoding="UTF-8" standalone="no"?>
<svg
   xmlns:dc="http://purl.org/dc/elements/1.1/"
   xmlns:cc="http://creativecommons.org/ns#"
   xmlns:rdf="http://www.w3.org/1999/02/22-rdf-syntax-ns#"
   xmlns:svg="http://www.w3.org/2000/svg"
   xmlns="http://www.w3.org/2000/svg"
   xmlns:sodipodi="http://sodipodi.sourceforge.net/DTD/sodipodi-0.dtd"
   xmlns:inkscape="http://www.inkscape.org/namespaces/inkscape"
   width="182.0289"
   height="126.1064"
   version="1.1"
   viewBox="0 0 644.98429 446.8337"
   id="svg225"
   sodipodi:docname="spyglass-resize.svg"
   inkscape:version="0.92.2 5c3e80d, 2017-08-06">
  <metadata
     id="metadata229">
    <rdf:RDF>
      <cc:Work
         rdf:about="">
        <dc:format>image/svg+xml</dc:format>
        <dc:type
           rdf:resource="http://purl.org/dc/dcmitype/StillImage" />
        <dc:title></dc:title>
      </cc:Work>
    </rdf:RDF>
  </metadata>
  <sodipodi:namedview
     pagecolor="#ffffff"
     bordercolor="#666666"
     borderopacity="1"
     objecttolerance="10"
     gridtolerance="10"
     guidetolerance="10"
     inkscape:pageopacity="0"
     inkscape:pageshadow="2"
     inkscape:window-width="1301"
     inkscape:window-height="663"
     id="namedview227"
     showgrid="false"
     inkscape:zoom="1.5353535"
     inkscape:cx="85.496222"
     inkscape:cy="39.206648"
     inkscape:window-x="1135"
     inkscape:window-y="0"
     inkscape:window-maximized="0"
     inkscape:current-layer="svg225" />
  <defs
     id="defs51">
    <clipPath
       id="f">
      <path
         d="M 0,485.04 H 648.99 V 0 H 0 Z"
         id="path10"
         inkscape:connector-curvature="0" />
    </clipPath>
    <linearGradient
       id="g"
       x2="1"
       gradientTransform="matrix(0,-21.317,21.318,-0.0018311,311.71,408.14)"
       gradientUnits="userSpaceOnUse">
      <stop
         stop-color="#e4e4ec"
         offset="0"
         id="stop13" />
      <stop
         stop-color="#e4e4ec"
         offset=".0056152"
         id="stop15" />
      <stop
         stop-color="#fff"
         offset=".028191"
         id="stop17" />
      <stop
         stop-color="#fff"
         offset=".11798"
         id="stop19" />
      <stop
         stop-color="#a8a8bf"
         offset="1"
         id="stop21" />
    </linearGradient>
    <radialGradient
       id="j"
       cx="0"
       cy="0"
       r="1"
       gradientTransform="matrix(34.488,-34.151,34.151,34.484,229.4,387.72)"
       gradientUnits="userSpaceOnUse">
      <stop
         stop-color="#06c"
         offset="0"
         id="stop24" />
      <stop
         stop-color="#06c"
         offset=".0056152"
         id="stop26" />
      <stop
         stop-color="#06c"
         offset=".23141"
         id="stop28" />
      <stop
         stop-color="#0ff"
         offset="1"
         id="stop30" />
    </radialGradient>
    <linearGradient
       id="h"
       x2="1"
       gradientTransform="matrix(-40.588,-4.8926,4.8926,-40.588,200.94,398.93)"
       gradientUnits="userSpaceOnUse">
      <stop
         stop-color="#fffff7"
         offset="0"
         id="stop33" />
      <stop
         stop-color="#fffff7"
         offset=".0056152"
         id="stop35" />
      <stop
         stop-color="#fff"
         offset=".25281"
         id="stop37" />
      <stop
         stop-color="#a8a8bf"
         offset="1"
         id="stop39" />
    </linearGradient>
    <linearGradient
       id="i"
       x2="1"
       gradientTransform="matrix(9.4922,-17.769,17.769,9.4922,193.69,385.35)"
       gradientUnits="userSpaceOnUse">
      <stop
         stop-color="#fffff7"
         offset="0"
         id="stop42" />
      <stop
         stop-color="#fffff7"
         offset=".0056152"
         id="stop44" />
      <stop
         stop-color="#fff"
         offset=".25281"
         id="stop46" />
      <stop
         stop-color="#a8a8bf"
         offset="1"
         id="stop48" />
    </linearGradient>
  </defs>
  <g
     transform="matrix(2.5164,0,0,2.5164,-1164.1079,-1425.3686)"
     id="g223">
    <g
       transform="matrix(0.59695,0,0,0.59695,449.1,-725.41)"
       id="g87">
      <g
         transform="translate(-44.751,1050.3)"
         id="g85">
        <ellipse
           cx="234.25"
           cy="1262.5"
           rx="165.13"
           ry="146.99001"
           id="ellipse53"
           style="fill:#ffff24;stroke:#412700;stroke-width:3.47979999;stroke-linecap:round;stroke-linejoin:round" />
        <g
           transform="translate(2.1115,5.4357)"
           id="g79">
          <g
             transform="translate(2.5322)"
             id="g69">
            <g
               transform="translate(-10.051)"
               id="g61">
              <circle
                 cx="162.96001"
                 cy="1233.5"
                 r="58.587002"
                 id="circle55" />
              <circle
                 cx="181.71001"
                 cy="1251.7"
                 r="19.492001"
                 id="circle57"
                 style="fill:#ffffff" />
              <path
                 d="m 147.13,1183 a 58.587,58.587 0 0 0 -36.057,47.572 30.809,30.809 0 0 0 24.109,11.633 30.809,30.809 0 0 0 30.811,-30.808 30.809,30.809 0 0 0 -18.863,-28.396 z"
                 id="path59"
                 inkscape:connector-curvature="0"
                 style="fill:#ffffff" />
            </g>
            <g
               transform="matrix(0.98098,-0.1941,0.1941,0.98098,-471.41,124.23)"
               id="g67">
              <path
                 d="m 482.81,1233.8 109.01,-13.759 c 8.1496,13.336 7.8321,30.482 2.2226,46.04 l -112.4,-20.321 c -3.5118,-2.8163 -1.7157,-8.4663 1.1642,-11.96 z"
                 id="path63"
                 inkscape:connector-curvature="0"
                 style="fill:#ffffff;fill-rule:evenodd;stroke:#000000;stroke-width:3.51789999" />
              <path
                 d="m 591.75,1218.4 c -15.523,1.919 -31.68,3.9215 -49.392,6.1445 -0.83064,12.873 -9.5933,23.866 -21.957,27.546 l 19.611,3.7136 c 2.8957,-7.5134 10.113,-12.473 18.165,-12.482 10.766,0 19.495,8.7271 19.494,19.494 -0.002,0.038 -0.005,0.076 -0.007,0.1146 5.4233,1.0324 10.354,2.311 16.294,3.0853 2.6783,-6.8174 4.0544,-14.076 4.0571,-21.401 -0.0229,-9.1062 -2.1682,-18.082 -6.2656,-26.214 z m -102.01,12.96 c -2.6932,0.3683 -5.355,0.7326 -7.5482,1.047 -0.87729,4.0072 -1.3313,8.0955 -1.3545,12.198 l 11.913,2.2543 c -1.9335,-1.49 -3.6832,-3.2045 -5.212,-5.1074 0.41782,-3.5233 1.1548,-7.0014 2.202,-10.391 z"
                 id="path65"
                 inkscape:connector-curvature="0" />
            </g>
          </g>
          <path
             d="m 262.82,1343.8 c 2e-5,17.218 -13.733,23.465 -30.673,23.465 -16.94,0 -30.673,-6.2477 -30.673,-23.465 6.4589,31.87 59.247,27.445 61.345,0 z"
             id="path71"
             inkscape:connector-curvature="0"
             style="fill:none;stroke:#412700;stroke-width:3;stroke-linecap:round;stroke-linejoin:round" />
          <g
             transform="translate(4.8518)"
             id="g77"
             style="fill:none;stroke:#412700;stroke-width:3;stroke-linecap:round;stroke-linejoin:round">
            <path
               d="m 187.4,1160.2 h 22.369 l 7.2096,-13.41"
               id="path73"
               inkscape:connector-curvature="0" />
            <path
               d="m 267.18,1160.2 h -22.369 l -7.2096,-13.41"
               id="path75"
               inkscape:connector-curvature="0" />
          </g>
        </g>
        <path
           d="m 367,1260.5 c 4.1737,-0.2652 6.5791,-2.4205 13.726,0.492 v 0"
           id="path81"
           inkscape:connector-curvature="0"
           style="fill:none;stroke:#271200;stroke-width:1.67519999px;stroke-linecap:round;stroke-linejoin:round" />
        <path
           d="m 366.25,1263.1 c 8.1368,1.2128 16.263,2.4513 22.017,9.4271"
           id="path83"
           inkscape:connector-curvature="0"
           style="fill:none;stroke:#271200;stroke-width:1.67519999px;stroke-linecap:round;stroke-linejoin:round" />
      </g>
    </g>
    <g
       transform="translate(-136.72,11.12)"
       id="g221">
      <g
         transform="matrix(-0.48016,0.19659,0.21708,0.45168,723.32,589.98)"
         id="g219">
        <g
           transform="matrix(0.5024,0,0,1,-64.672,0.64813)"
           id="g141">
          <g
             transform="matrix(1.25,0,0,-1.25,-432.98,599.77)"
             id="g97"
             style="fill:#1a1a1a">
            <g
               id="g95"
               style="fill:#1a1a1a">
              <g
                 id="g93"
                 style="fill:#1a1a1a">
                <g
                   id="g91"
                   style="fill:#1a1a1a">
                  <path
                     d="m 386.59,391.24 31.774,-0.004 c 0.125,-0.018 0.247,-0.034 0.373,-0.033 1.819,0.011 3.328,2.14 3.786,5.016 -0.376,0.666 -0.751,1.486 -1.096,2.521 -1.073,3.214 -3.568,5.204 -5.115,6.176 l -29.722,10e-4 z"
                     id="path89"
                     inkscape:connector-curvature="0"
                     style="fill:#1a1a1a" />
                </g>
              </g>
            </g>
          </g>
          <g
             transform="matrix(1.25,0,0,-1.25,-432.98,599.77)"
             id="g101">
            <path
               d="m 416.31,404.91 c 1.547,-0.972 4.042,-2.962 5.115,-6.176 0.345,-1.035 0.72,-1.855 1.096,-2.521 0.095,0.593 0.161,1.205 0.16,1.851 -0.017,3.779 -1.811,6.831 -4.004,6.825 v 0.021 z"
               id="path99"
               inkscape:connector-curvature="0"
               style="fill:#666666" />
          </g>
          <g
             transform="matrix(1.25,0,0,-1.25,-432.98,599.77)"
             id="g109">
            <g
               clip-path="url(#f)"
               id="g107">
              <g
                 transform="translate(386.59,404.91)"
                 id="g105">
                <path
                   d="m 0,0 28.027,-0.001 c 0.521,-2.108 0.812,-4.4 0.822,-6.812 v -0.136 c 0,-2.379 -0.271,-4.644 -0.768,-6.732 L 0,-13.677 Z"
                   id="path103"
                   inkscape:connector-curvature="0"
                   style="fill:#999999" />
              </g>
            </g>
          </g>
          <g
             transform="matrix(1.25,0,0,-1.25,-432.98,599.77)"
             id="g119">
            <g
               id="g117"
               style="fill:#4d4d4d">
              <g
                 id="g115"
                 style="fill:#4d4d4d">
                <g
                   id="g113"
                   style="fill:#4d4d4d">
                  <path
                     d="m 386.59,391.24 28.081,-0.003 c 0.497,2.087 0.767,4.352 0.767,6.731 v 0.136 c -0.009,2.412 -0.3,4.704 -0.821,6.812 l -28.027,10e-4 z"
                     id="path111"
                     inkscape:connector-curvature="0"
                     style="fill:#4d4d4d" />
                </g>
              </g>
            </g>
          </g>
          <g
             transform="matrix(1.25,0,0,-1.25,-432.98,599.77)"
             id="g129">
            <g
               id="g127"
               style="fill:#1a1a1a">
              <g
                 id="g125"
                 style="fill:#1a1a1a">
                <g
                   id="g123"
                   style="fill:#1a1a1a">
                  <path
                     d="m 328.9,413.81 v -31.43 h 73.014 c 0.283,-0.046 0.568,-0.08 0.856,-0.075 5.04,0.029 9.099,7.095 9.062,15.781 -0.037,8.676 -4.158,15.691 -9.195,15.677 v 0.047 z"
                     id="path121"
                     inkscape:connector-curvature="0"
                     style="fill:#1a1a1a" />
                </g>
              </g>
            </g>
          </g>
          <g
             transform="matrix(1.25,0,0,-1.25,-432.98,599.77)"
             id="g139"
             style="fill:#4d4d4d">
            <g
               id="g137"
               style="fill:#4d4d4d">
              <g
                 id="g135"
                 style="fill:#4d4d4d">
                <g
                   id="g133"
                   style="fill:#4d4d4d">
                  <path
                     d="m 328.9,413.81 v -31.43 h 54.43 c 1.865,4.405 2.944,9.74 2.944,15.545 v 0.192 c -0.028,5.878 -1.163,11.263 -3.094,15.693 z"
                     id="path131"
                     inkscape:connector-curvature="0"
                     style="fill:#4d4d4d" />
                </g>
              </g>
            </g>
          </g>
        </g>
        <g
           transform="translate(-38.849,0.65381)"
           id="g163">
          <g
             transform="matrix(1.25,0,0,-1.25,-432.98,599.77)"
             id="g145">
            <path
               d="m 287.63,373.94 h 43.475 c 2.959,6.66 4.686,14.892 4.686,23.898 0,0.107 0,0.214 -10e-4,0.321 -0.041,9.116 -1.843,17.433 -4.892,24.132 l -43.268,0.003 z"
               id="path143"
               inkscape:connector-curvature="0"
               style="fill:url(#g)" />
          </g>
          <g
             transform="matrix(0.56899,0,0,1,-31.655,0)"
             id="g161">
            <g
               transform="matrix(1.25,0,0,-1.25,-432.98,599.77)"
               id="g155"
               style="fill:#1a1a1a">
              <g
                 id="g153"
                 style="fill:#1a1a1a">
                <g
                   id="g151"
                   style="fill:#1a1a1a">
                  <g
                     id="g149"
                     style="fill:#1a1a1a">
                    <path
                       d="m 287.63,373.94 h 79.784 c 0.432,-0.07 0.87,-0.113 1.307,-0.108 7.763,0.038 13.999,10.915 13.946,24.27 -0.059,13.355 -6.395,24.137 -14.149,24.122 v 0.066 l -80.888,0.004 z"
                       id="path147"
                       inkscape:connector-curvature="0"
                       style="fill:#1a1a1a" />
                  </g>
                </g>
              </g>
            </g>
            <g
               transform="matrix(1.25,0,0,-1.25,-432.98,599.77)"
               id="g159">
              <path
                 d="m 287.63,373.94 h 43.475 c 2.959,6.66 4.686,14.892 4.686,23.898 0,0.107 0,0.214 -10e-4,0.321 -0.041,9.116 -1.843,17.433 -4.892,24.132 l -43.268,0.003 z"
                 id="path157"
                 inkscape:connector-curvature="0"
                 style="fill:#666666" />
            </g>
          </g>
        </g>
        <g
           transform="translate(8.2195e-6,0.67091)"
           id="g217">
          <path
             d="m -194.93,148.37 92.688,0.0138 c 0.51862,0.125 1.0419,0.205 1.5692,0.205 9.3156,-0.08 16.811,-20.896 16.738,-46.491 -0.07286,-25.566 -7.6798,-46.248 -16.98,-46.195 v -0.12375 l -94.02,-0.0063 0.004,92.598 z"
             id="path165"
             inkscape:connector-curvature="0"
             style="fill:#1a1a1a" />
          <g
             transform="matrix(1.25,0,0,-1.25,-432.98,599.77)"
             id="g169">
            <path
               d="m 198.44,428.14 c -6.961,-0.025 -12.537,-13.547 -12.459,-30.2 0.092,-16.651 5.797,-30.14 12.747,-30.094 6.949,0.041 12.518,13.566 12.447,30.205 -0.091,16.634 -5.789,30.089 -12.715,30.089 h -0.02"
               id="path167"
               inkscape:connector-curvature="0"
               style="fill:url(#j)" />
          </g>
          <g
             transform="matrix(1.25,0,0,-1.25,-432.98,599.77)"
             id="g173">
            <path
               d="m 193.27,435.1 c -11.886,-0.059 -21.464,-16.69 -21.362,-37.166 0.111,-20.482 9.8,-37.043 21.692,-36.978 11.89,0.059 21.455,16.72 21.356,37.192 -0.082,20.415 -9.766,36.951 -21.629,36.952 h -0.057"
               id="path171"
               inkscape:connector-curvature="0"
               style="fill:url(#h)" />
          </g>
          <g
             transform="matrix(1.25,0,0,-1.25,-432.98,599.77)"
             id="g177">
            <path
               d="m 190.19,434.26 c -11.618,-0.055 -20.978,-16.312 -20.879,-36.325 0.108,-20.017 9.581,-36.205 21.202,-36.141 11.622,0.059 20.97,16.341 20.873,36.35 -0.081,19.954 -9.544,36.115 -21.14,36.117 -0.019,0 -0.037,-0.001 -0.056,-0.001"
               id="path175"
               inkscape:connector-curvature="0" />
          </g>
          <g
             transform="matrix(1.25,0,0,-1.25,-432.98,599.77)"
             id="g185">
            <g
               id="g183"
               style="fill:#333333">
              <g
                 id="g181"
                 style="fill:#333333">
                <path
                   d="m 197.12,427.3 c -9.338,-0.038 -16.82,-13.181 -16.78,-29.346 0.079,-16.183 7.708,-29.276 17.008,-29.208 2.173,0.011 4.246,0.728 6.145,2.027 4.945,8.514 6.773,14.919 6.731,27.331 -0.067,13.201 -4.765,24.371 -8.183,27.958 -1.544,0.806 -3.181,1.238 -4.874,1.238 h -0.047"
                   id="path179"
                   inkscape:connector-curvature="0"
                   style="fill:#333333" />
              </g>
            </g>
          </g>
          <g
             transform="matrix(1.25,0,0,-1.25,-432.98,599.77)"
             id="g195"
             style="fill:#f2f2f2">
            <g
               id="g193"
               style="fill:#f2f2f2">
              <g
                 id="g191"
                 style="fill:#f2f2f2">
                <g
                   id="g189"
                   style="fill:#f2f2f2">
                  <path
                     d="m 184.19,398.83 c 0.094,-10.458 4.265,-19.175 9.761,-21.391 -3.151,5.701 -5.137,13.465 -5.215,22.048 -0.063,7.775 1.451,14.892 4.006,20.421 -5.029,-2.784 -8.63,-11.169 -8.552,-21.078"
                     id="path187"
                     inkscape:connector-curvature="0"
                     style="fill:#f2f2f2" />
                </g>
              </g>
            </g>
          </g>
          <g
             transform="matrix(1.25,0,0,-1.25,-432.98,599.77)"
             id="g201">
            <g
               id="g199"
               style="fill:#1a1a1a">
              <path
                 d="m 190.19,435.1 c -11.887,-0.059 -21.464,-16.69 -21.362,-37.166 0.109,-20.482 9.799,-37.043 21.69,-36.978 11.891,0.059 21.457,16.72 21.358,37.192 -0.082,20.415 -9.765,36.951 -21.628,36.952 h -0.058 m -17.207,-37.163 c -0.056,17.975 7.912,32.597 17.797,32.628 9.913,0.058 17.964,-14.497 18.034,-32.454 0.066,-17.986 -7.91,-32.61 -17.802,-32.652 h -0.043 c -9.874,-10e-4 -17.912,14.522 -17.986,32.478"
                 id="path197"
                 inkscape:connector-curvature="0"
                 style="fill:#1a1a1a" />
            </g>
          </g>
          <g
             transform="matrix(1.25,0,0,-1.25,-432.98,599.77)"
             id="g205">
            <path
               d="m 190.09,430.62 c -9.903,-0.031 -17.887,-14.678 -17.828,-32.684 0.071,-18.012 8.15,-32.577 18.06,-32.535 0.353,0.002 0.694,0.062 1.043,0.1 -9.377,1.04 -16.843,15.125 -16.912,32.435 -0.058,17.368 7.374,31.57 16.788,32.586 -0.372,0.041 -0.74,0.098 -1.117,0.098 h -0.034"
               id="path203"
               inkscape:connector-curvature="0"
               style="fill:url(#i)" />
          </g>
          <g
             transform="matrix(1.25,0,0,-1.25,-432.98,599.77)"
             id="g215"
             style="fill:#f2f2f2">
            <g
               id="g213"
               style="fill:#f2f2f2">
              <g
                 id="g211"
                 style="fill:#f2f2f2">
                <g
                   id="g209"
                   style="fill:#f2f2f2">
                  <path
                     d="m 198.79,396.21 c 0,-3.093 1.646,-5.6 3.689,-5.608 2.028,0.008 3.679,2.515 3.679,5.603 0,3.102 -1.647,5.61 -3.679,5.61 -2.043,0 -3.698,-2.508 -3.689,-5.605"
                     id="path207"
                     inkscape:connector-curvature="0"
                     style="fill:#f2f2f2" />
                </g>
              </g>
            </g>
          </g>
        </g>
      </g>
    </g>
  </g>
</svg>
