<?xml version="1.0" encoding="UTF-8"?>
<svg width="210px" height="297px" version="1.1" viewBox="0 0 744.09448819 1052.3622047" xmlns="http://www.w3.org/2000/svg">
 <defs>
  <clipPath id="f">
   <path d="m0 485.04h648.99v-485.04h-648.99v485.04z"/>
  </clipPath>
  <linearGradient id="g" x2="1" gradientTransform="matrix(0 -21.317 21.318 -.0018311 311.71 408.14)" gradientUnits="userSpaceOnUse">
   <stop stop-color="#e4e4ec" offset="0"/>
   <stop stop-color="#e4e4ec" offset=".0056152"/>
   <stop stop-color="#fff" offset=".028191"/>
   <stop stop-color="#fff" offset=".11798"/>
   <stop stop-color="#a8a8bf" offset="1"/>
  </linearGradient>
  <radialGradient id="j" cx="0" cy="0" r="1" gradientTransform="matrix(34.488 -34.151 34.151 34.484 229.4 387.72)" gradientUnits="userSpaceOnUse">
   <stop stop-color="#06c" offset="0"/>
   <stop stop-color="#06c" offset=".0056152"/>
   <stop stop-color="#06c" offset=".23141"/>
   <stop stop-color="#0ff" offset="1"/>
  </radialGradient>
  <linearGradient id="h" x2="1" gradientTransform="matrix(-40.588 -4.8926 4.8926 -40.588 200.94 398.93)" gradientUnits="userSpaceOnUse">
   <stop stop-color="#fffff7" offset="0"/>
   <stop stop-color="#fffff7" offset=".0056152"/>
   <stop stop-color="#fff" offset=".25281"/>
   <stop stop-color="#a8a8bf" offset="1"/>
  </linearGradient>
  <linearGradient id="i" x2="1" gradientTransform="matrix(9.4922 -17.769 17.769 9.4922 193.69 385.35)" gradientUnits="userSpaceOnUse">
   <stop stop-color="#fffff7" offset="0"/>
   <stop stop-color="#fffff7" offset=".0056152"/>
   <stop stop-color="#fff" offset=".25281"/>
   <stop stop-color="#a8a8bf" offset="1"/>
  </linearGradient>
 </defs>
 <g transform="matrix(2.5164 0 0 2.5164 -1095 -1207.1)">
  <g transform="matrix(.59695 0 0 .59695 449.1 -725.41)">
   <g transform="translate(-44.751 1050.3)">
    <ellipse cx="234.25" cy="1262.5" rx="165.13" ry="146.99" fill="#ffff24" stroke="#412700" stroke-linecap="round" stroke-linejoin="round" stroke-width="3.4798"/>
    <g transform="translate(2.1115 5.4357)">
     <g transform="translate(2.5322)">
      <g transform="translate(-10.051)">
       <circle cx="162.96" cy="1233.5" r="58.587"/>
       <circle cx="181.71" cy="1251.7" r="19.492" fill="#fff"/>
       <path d="m147.13 1183a58.587 58.587 0 0 0 -36.057 47.572 30.809 30.809 0 0 0 24.109 11.633 30.809 30.809 0 0 0 30.811 -30.808 30.809 30.809 0 0 0 -18.863 -28.396z" fill="#fff"/>
      </g>
      <g transform="matrix(.98098 -.1941 .1941 .98098 -471.41 124.23)">
       <path d="m482.81 1233.8 109.01-13.759c8.1496 13.336 7.8321 30.482 2.2226 46.04l-112.4-20.321c-3.5118-2.8163-1.7157-8.4663 1.1642-11.96z" fill="#fff" fill-rule="evenodd" stroke="#000" stroke-width="3.5179"/>
       <path d="m591.75 1218.4c-15.523 1.919-31.68 3.9215-49.392 6.1445-0.83064 12.873-9.5933 23.866-21.957 27.546l19.611 3.7136c2.8957-7.5134 10.113-12.473 18.165-12.482 10.766 0 19.495 8.7271 19.494 19.494-2e-3 0.038-5e-3 0.076-7e-3 0.1146 5.4233 1.0324 10.354 2.311 16.294 3.0853 2.6783-6.8174 4.0544-14.076 4.0571-21.401-0.0229-9.1062-2.1682-18.082-6.2656-26.214zm-102.01 12.96c-2.6932 0.3683-5.355 0.7326-7.5482 1.047-0.87729 4.0072-1.3313 8.0955-1.3545 12.198l11.913 2.2543c-1.9335-1.49-3.6832-3.2045-5.212-5.1074 0.41782-3.5233 1.1548-7.0014 2.202-10.391z"/>
      </g>
     </g>
     <path d="m262.82 1343.8c2e-5 17.218-13.733 23.465-30.673 23.465s-30.673-6.2477-30.673-23.465c6.4589 31.87 59.247 27.445 61.345 0z" fill="none" stroke="#412700" stroke-linecap="round" stroke-linejoin="round" stroke-width="3"/>
     <g transform="translate(4.8518)" fill="none" stroke="#412700" stroke-linecap="round" stroke-linejoin="round" stroke-width="3">
      <path d="m187.4 1160.2h22.369l7.2096-13.41"/>
      <path d="m267.18 1160.2h-22.369l-7.2096-13.41"/>
     </g>
    </g>
    <path d="m367 1260.5c4.1737-0.2652 6.5791-2.4205 13.726 0.492v0" fill="none" stroke="#271200" stroke-linecap="round" stroke-linejoin="round" stroke-width="1.6752px"/>
    <path d="m366.25 1263.1c8.1368 1.2128 16.263 2.4513 22.017 9.4271" fill="none" stroke="#271200" stroke-linecap="round" stroke-linejoin="round" stroke-width="1.6752px"/>
   </g>
  </g>
  <g transform="translate(-136.72 11.12)">
   <g transform="matrix(-.48016 .19659 .21708 .45168 723.32 589.98)">
    <g transform="matrix(.5024 0 0 1 -64.672 .64813)">
     <g transform="matrix(1.25 0 0 -1.25 -432.98 599.77)" fill="#1a1a1a">
      <g fill="#1a1a1a">
       <g fill="#1a1a1a">
        <g fill="#1a1a1a">
         <path d="m386.59 391.24 31.774-4e-3c0.125-0.018 0.247-0.034 0.373-0.033 1.819 0.011 3.328 2.14 3.786 5.016-0.376 0.666-0.751 1.486-1.096 2.521-1.073 3.214-3.568 5.204-5.115 6.176l-29.722 1e-3v-13.677z" fill="#1a1a1a"/>
        </g>
       </g>
      </g>
     </g>
     <g transform="matrix(1.25 0 0 -1.25 -432.98 599.77)">
      <path d="m416.31 404.91c1.547-0.972 4.042-2.962 5.115-6.176 0.345-1.035 0.72-1.855 1.096-2.521 0.095 0.593 0.161 1.205 0.16 1.851-0.017 3.779-1.811 6.831-4.004 6.825v0.021h-2.367z" fill="#666"/>
     </g>
     <g transform="matrix(1.25 0 0 -1.25 -432.98 599.77)">
      <g clip-path="url(#f)">
       <g transform="translate(386.59 404.91)">
        <path d="m0 0 28.027-1e-3c0.521-2.108 0.812-4.4 0.822-6.812v-0.136c0-2.379-0.271-4.644-0.768-6.732l-28.081 4e-3v13.677z" fill="#999"/>
       </g>
      </g>
     </g>
     <g transform="matrix(1.25 0 0 -1.25 -432.98 599.77)">
      <g fill="#4d4d4d">
       <g fill="#4d4d4d">
        <g fill="#4d4d4d">
         <path d="m386.59 391.24 28.081-3e-3c0.497 2.087 0.767 4.352 0.767 6.731v0.136c-9e-3 2.412-0.3 4.704-0.821 6.812l-28.027 1e-3v-13.677z" fill="#4d4d4d"/>
        </g>
       </g>
      </g>
     </g>
     <g transform="matrix(1.25 0 0 -1.25 -432.98 599.77)">
      <g fill="#1a1a1a">
       <g fill="#1a1a1a">
        <g fill="#1a1a1a">
         <path d="m328.9 413.81v-31.43h73.014c0.283-0.046 0.568-0.08 0.856-0.075 5.04 0.029 9.099 7.095 9.062 15.781-0.037 8.676-4.158 15.691-9.195 15.677v0.047h-73.737z" fill="#1a1a1a"/>
        </g>
       </g>
      </g>
     </g>
     <g transform="matrix(1.25 0 0 -1.25 -432.98 599.77)" fill="#4d4d4d">
      <g fill="#4d4d4d">
       <g fill="#4d4d4d">
        <g fill="#4d4d4d">
         <path d="m328.9 413.81v-31.43h54.43c1.865 4.405 2.944 9.74 2.944 15.545v0.192c-0.028 5.878-1.163 11.263-3.094 15.693h-54.28z" fill="#4d4d4d"/>
        </g>
       </g>
      </g>
     </g>
    </g>
    <g transform="translate(-38.849 .65381)">
     <g transform="matrix(1.25 0 0 -1.25 -432.98 599.77)">
      <path d="m287.63 373.94h43.475c2.959 6.66 4.686 14.892 4.686 23.898 0 0.107 0 0.214-1e-3 0.321-0.041 9.116-1.843 17.433-4.892 24.132l-43.268 3e-3v-48.354z" fill="url(#g)"/>
     </g>
     <g transform="matrix(.56899 0 0 1 -31.655 0)">
      <g transform="matrix(1.25 0 0 -1.25 -432.98 599.77)" fill="#1a1a1a">
       <g fill="#1a1a1a">
        <g fill="#1a1a1a">
         <g fill="#1a1a1a">
          <path d="m287.63 373.94h79.784c0.432-0.07 0.87-0.113 1.307-0.108 7.763 0.038 13.999 10.915 13.946 24.27-0.059 13.355-6.395 24.137-14.149 24.122v0.066l-80.888 4e-3v-48.354z" fill="#1a1a1a"/>
         </g>
        </g>
       </g>
      </g>
      <g transform="matrix(1.25 0 0 -1.25 -432.98 599.77)">
       <path d="m287.63 373.94h43.475c2.959 6.66 4.686 14.892 4.686 23.898 0 0.107 0 0.214-1e-3 0.321-0.041 9.116-1.843 17.433-4.892 24.132l-43.268 3e-3v-48.354z" fill="#666"/>
      </g>
     </g>
    </g>
    <g transform="translate(8.2195e-6 .67091)">
     <path d="m-194.93 148.37 92.688 0.0138c0.51862 0.125 1.0419 0.205 1.5692 0.205 9.3156-0.08 16.811-20.896 16.738-46.491-0.07286-25.566-7.6798-46.248-16.98-46.195v-0.12375l-94.02-0.0063 4e-3 92.598z" fill="#1a1a1a"/>
     <g transform="matrix(1.25 0 0 -1.25 -432.98 599.77)">
      <path d="m198.44 428.14c-6.961-0.025-12.537-13.547-12.459-30.2 0.092-16.651 5.797-30.14 12.747-30.094 6.949 0.041 12.518 13.566 12.447 30.205-0.091 16.634-5.789 30.089-12.715 30.089h-0.02" fill="url(#j)"/>
     </g>
     <g transform="matrix(1.25 0 0 -1.25 -432.98 599.77)">
      <path d="m193.27 435.1c-11.886-0.059-21.464-16.69-21.362-37.166 0.111-20.482 9.8-37.043 21.692-36.978 11.89 0.059 21.455 16.72 21.356 37.192-0.082 20.415-9.766 36.951-21.629 36.952h-0.057" fill="url(#h)"/>
     </g>
     <g transform="matrix(1.25 0 0 -1.25 -432.98 599.77)">
      <path d="m190.19 434.26c-11.618-0.055-20.978-16.312-20.879-36.325 0.108-20.017 9.581-36.205 21.202-36.141 11.622 0.059 20.97 16.341 20.873 36.35-0.081 19.954-9.544 36.115-21.14 36.117-0.019 0-0.037-1e-3 -0.056-1e-3"/>
     </g>
     <g transform="matrix(1.25 0 0 -1.25 -432.98 599.77)">
      <g fill="#333">
       <g fill="#333">
        <path d="m197.12 427.3c-9.338-0.038-16.82-13.181-16.78-29.346 0.079-16.183 7.708-29.276 17.008-29.208 2.173 0.011 4.246 0.728 6.145 2.027 4.945 8.514 6.773 14.919 6.731 27.331-0.067 13.201-4.765 24.371-8.183 27.958-1.544 0.806-3.181 1.238-4.874 1.238h-0.047" fill="#333"/>
       </g>
      </g>
     </g>
     <g transform="matrix(1.25 0 0 -1.25 -432.98 599.77)" fill="#f2f2f2">
      <g fill="#f2f2f2">
       <g fill="#f2f2f2">
        <g fill="#f2f2f2">
         <path d="m184.19 398.83c0.094-10.458 4.265-19.175 9.761-21.391-3.151 5.701-5.137 13.465-5.215 22.048-0.063 7.775 1.451 14.892 4.006 20.421-5.029-2.784-8.63-11.169-8.552-21.078" fill="#f2f2f2"/>
        </g>
       </g>
      </g>
     </g>
     <g transform="matrix(1.25 0 0 -1.25 -432.98 599.77)">
      <g fill="#1a1a1a">
       <path d="m190.19 435.1c-11.887-0.059-21.464-16.69-21.362-37.166 0.109-20.482 9.799-37.043 21.69-36.978 11.891 0.059 21.457 16.72 21.358 37.192-0.082 20.415-9.765 36.951-21.628 36.952h-0.058m-17.207-37.163c-0.056 17.975 7.912 32.597 17.797 32.628 9.913 0.058 17.964-14.497 18.034-32.454 0.066-17.986-7.91-32.61-17.802-32.652h-0.043c-9.874-1e-3 -17.912 14.522-17.986 32.478" fill="#1a1a1a"/>
      </g>
     </g>
     <g transform="matrix(1.25 0 0 -1.25 -432.98 599.77)">
      <path d="m190.09 430.62c-9.903-0.031-17.887-14.678-17.828-32.684 0.071-18.012 8.15-32.577 18.06-32.535 0.353 2e-3 0.694 0.062 1.043 0.1-9.377 1.04-16.843 15.125-16.912 32.435-0.058 17.368 7.374 31.57 16.788 32.586-0.372 0.041-0.74 0.098-1.117 0.098h-0.034" fill="url(#i)"/>
     </g>
     <g transform="matrix(1.25 0 0 -1.25 -432.98 599.77)" fill="#f2f2f2">
      <g fill="#f2f2f2">
       <g fill="#f2f2f2">
        <g fill="#f2f2f2">
         <path d="m198.79 396.21c0-3.093 1.646-5.6 3.689-5.608 2.028 8e-3 3.679 2.515 3.679 5.603 0 3.102-1.647 5.61-3.679 5.61-2.043 0-3.698-2.508-3.689-5.605" fill="#f2f2f2"/>
        </g>
       </g>
      </g>
     </g>
    </g>
   </g>
  </g>
 </g>
</svg>
